<svg width="48" height="14" viewBox="0 0 48 14" fill="none" xmlns="http://www.w3.org/2000/svg">
<rect width="41.9999" height="14" fill="#C2681F"/>
<path d="M37.4993 2.49818H38.9999V3.99879H37.4993V2.49818ZM37.4993 3.99879H38.9999V5.4994H37.4993V3.99879ZM37.4993 5.4994H38.9999V7H37.4993V5.4994ZM37.4993 7H38.9999V8.50061H37.4993V7ZM37.4993 8.50061H38.9999V10.0012H37.4993V8.50061ZM35.9987 3.99879H37.4993V5.4994H35.9987V3.99879ZM34.498 5.4994H35.9987V7H34.498V5.4994ZM34.498 7H35.9987V8.50061H34.498V7ZM35.9987 8.50061H37.4993V10.0012H35.9987V8.50061Z" fill="#DFD3B9"/>
<path d="M30.001 3.99878H31.5016V5.49938H30.001V3.99878ZM30.001 5.49938H31.5016V6.99999H30.001V5.49938ZM30.001 6.99999H31.5016V8.5006H30.001V6.99999ZM30.001 8.5006H31.5016V10.0012H30.001V8.5006ZM31.5016 3.99878H33.0022V5.49938H31.5016V3.99878Z" fill="#DFD3B9"/>
<path d="M27.0051 3.99878H28.5057V5.49938H27.0051V3.99878ZM27.0051 5.49938H28.5057V6.99999H27.0051V5.49938ZM27.0051 6.99999H28.5057V8.5006H27.0051V6.99999ZM27.0051 8.5006H28.5057V10.0012H27.0051V8.5006ZM25.5045 3.99878H27.0051V5.49938H25.5045V3.99878ZM25.5045 8.5006H27.0051V10.0012H25.5045V8.5006ZM24.0039 5.49938H25.5045V6.99999H24.0039V5.49938ZM24.0039 6.99999H25.5045V8.5006H24.0039V6.99999Z" fill="#DFD3B9"/>
<path d="M14.9932 3.99878H16.4938V5.49938H14.9932V3.99878ZM14.9932 5.49938H16.4938V6.99999H14.9932V5.49938ZM14.9932 6.99999H16.4938V8.5006H14.9932V6.99999ZM16.4938 8.5006H17.9944V10.0012H16.4938V8.5006ZM17.9944 6.99999H19.495V8.5006H17.9944V6.99999ZM17.9944 5.49938H19.495V6.99999H17.9944V5.49938ZM17.9944 3.99878H19.495V5.49938H17.9944V3.99878ZM19.495 8.5006H20.9956V10.0012H19.495V8.5006ZM20.9956 6.99999H22.4962V8.5006H20.9956V6.99999ZM20.9956 5.49938H22.4962V6.99999H20.9956V5.49938ZM20.9956 3.99878H22.4962V5.49938H20.9956V3.99878Z" fill="#DFD3B9"/>
<path d="M10.4972 3.99878H11.9978V5.49938H10.4972V3.99878ZM11.9978 5.49938H13.4984V6.99999H11.9978V5.49938ZM8.99658 5.49938H10.4972V6.99999H8.99658V5.49938ZM11.9978 6.99999H13.4984V8.5006H11.9978V6.99999ZM10.4972 6.99999H11.9978V8.5006H10.4972V6.99999ZM8.99658 6.99999H10.4972V8.5006H8.99658V6.99999ZM8.99658 8.5006H10.4972V10.0012H8.99658V8.5006ZM10.4972 10.0012H11.9978V11.5018H10.4972V10.0012Z" fill="#DFD3B9"/>
<path d="M3 8.50061H4.50061V10.0012H3V8.50061ZM3 7H4.50061V8.50061H3V7ZM3 5.4994H4.50061V7H3V5.4994ZM3 3.99879H4.50061V5.4994H3V3.99879ZM3 2.49818H4.50061V3.99879H3V2.49818ZM4.50061 2.49818H6.00121V3.99879H4.50061V2.49818ZM6.00121 2.49818H7.50182V3.99879H6.00121V2.49818ZM6.00121 3.99879H7.50182V5.4994H6.00121V3.99879ZM4.50061 5.4994H6.00121V7H4.50061V5.4994ZM6.00121 7H7.50182V8.50061H6.00121V7ZM6.00121 8.50061H7.50182V10.0012H6.00121V8.50061Z" fill="#DFD3B9"/>
<rect x="42" width="2" height="2" fill="#C2681F"/>
<rect x="42" y="2" width="2" height="2" fill="#C2681F"/>
<rect x="42" y="4" width="2" height="2" fill="#C2681F"/>
<rect x="44" y="2" width="2" height="2" fill="#C2681F"/>
<rect x="42" y="12" width="2" height="2" fill="#C2681F"/>
<rect x="42" y="10" width="2" height="2" fill="#C2681F"/>
<rect x="42" y="8" width="2" height="2" fill="#C2681F"/>
<rect x="44" y="10" width="2" height="2" fill="#C2681F"/>
<rect x="44" width="2" height="2" fill="#C2681F"/>
<rect x="46" width="2" height="2" fill="#C2681F"/>
<rect x="44" y="12" width="2" height="2" fill="#C2681F"/>
<rect x="46" y="12" width="2" height="2" fill="#C2681F"/>
</svg>
