<svg width="44" height="14" viewBox="0 0 44 14" fill="none" xmlns="http://www.w3.org/2000/svg">
<rect width="37.0653" height="14" fill="#C2681F"/>
<path d="M29.1562 3.72727H30.7926V5.36364H29.1562V3.72727ZM29.1562 5.36364H30.7926V7H29.1562V5.36364ZM29.1562 7H30.7926V8.63636H29.1562V7ZM32.429 3.72727H34.0653V5.36364H32.429V3.72727ZM32.429 5.36364H34.0653V7H32.429V5.36364ZM32.429 7H34.0653V8.63636H32.429V7ZM30.7926 8.63636H32.429V10.2727H30.7926V8.63636ZM29.1562 10.2727H30.7926V11.9091H29.1562V10.2727Z" fill="#DFD3B9"/>
<path d="M24.252 2.09091H25.8883V3.72727H24.252V2.09091ZM24.252 3.72727H25.8883V5.36364H24.252V3.72727ZM24.252 5.36364H25.8883V7H24.252V5.36364ZM24.252 7H25.8883V8.63636H24.252V7ZM24.252 8.63636H25.8883V10.2727H24.252V8.63636ZM25.8883 8.63636H27.5247V10.2727H25.8883V8.63636ZM25.8883 3.72727H27.5247V5.36364H25.8883V3.72727Z" fill="#DFD3B9"/>
<path d="M20.9824 8.63636H22.6188V10.2727H20.9824V8.63636ZM20.9824 7H22.6188V8.63636H20.9824V7ZM20.9824 5.36364H22.6188V7H20.9824V5.36364ZM20.9824 2.09091H22.6188V3.72727H20.9824V2.09091Z" fill="#DFD3B9"/>
<path d="M16.0781 3.72727H17.7145V5.36364H16.0781V3.72727ZM16.0781 5.36364H17.7145V7H16.0781V5.36364ZM16.0781 7H17.7145V8.63636H16.0781V7ZM16.0781 8.63636H17.7145V10.2727H16.0781V8.63636ZM17.7145 3.72727H19.3509V5.36364H17.7145V3.72727Z" fill="#DFD3B9"/>
<path d="M12.8118 3.72727H14.4482V5.36364H12.8118V3.72727ZM12.8118 5.36364H14.4482V7H12.8118V5.36364ZM12.8118 7H14.4482V8.63636H12.8118V7ZM12.8118 8.63636H14.4482V10.2727H12.8118V8.63636ZM11.1754 3.72727H12.8118V5.36364H11.1754V3.72727ZM11.1754 8.63636H12.8118V10.2727H11.1754V8.63636ZM9.53906 5.36364H11.1754V7H9.53906V5.36364ZM9.53906 7H11.1754V8.63636H9.53906V7Z" fill="#DFD3B9"/>
<path d="M3 8.63636H4.63636V10.2727H3V8.63636ZM3 7H4.63636V8.63636H3V7ZM3 5.36364H4.63636V7H3V5.36364ZM3 3.72727H4.63636V5.36364H3V3.72727ZM3 2.09091H4.63636V3.72727H3V2.09091ZM4.63636 2.09091H6.27273V3.72727H4.63636V2.09091ZM6.27273 2.09091H7.90909V3.72727H6.27273V2.09091ZM6.27273 3.72727H7.90909V5.36364H6.27273V3.72727ZM4.63636 5.36364H6.27273V7H4.63636V5.36364ZM6.27273 7H7.90909V8.63636H6.27273V7ZM6.27273 8.63636H7.90909V10.2727H6.27273V8.63636Z" fill="#DFD3B9"/>
<rect x="37.0653" width="2" height="2" fill="#C2681F"/>
<rect x="37.0653" y="2" width="2" height="2" fill="#C2681F"/>
<rect x="37.0653" y="4" width="2" height="2" fill="#C2681F"/>
<rect x="39.0653" y="2" width="2" height="2" fill="#C2681F"/>
<rect x="37.0653" y="12" width="2" height="2" fill="#C2681F"/>
<rect x="37.0653" y="10" width="2" height="2" fill="#C2681F"/>
<rect x="37.0653" y="8" width="2" height="2" fill="#C2681F"/>
<rect x="39.0653" y="10" width="2" height="2" fill="#C2681F"/>
<rect x="39.0653" width="2" height="2" fill="#C2681F"/>
<rect x="41.0653" width="2" height="2" fill="#C2681F"/>
<rect x="39.0653" y="12" width="2" height="2" fill="#C2681F"/>
<rect x="41.0653" y="12" width="2" height="2" fill="#C2681F"/>
</svg>
