<svg width="87" height="46" viewBox="0 0 87 46" fill="none" xmlns="http://www.w3.org/2000/svg">
<rect width="67.3796" height="35.7778" fill="#D95764"/>
<path d="M55.4229 22.0283H57.0514V23.6568H55.4229V22.0283ZM57.0514 22.0283H58.6799V23.6568H57.0514V22.0283ZM57.0514 23.6568H58.6799V25.2854H57.0514V23.6568ZM55.4229 23.6568H57.0514V25.2854H55.4229V23.6568ZM55.4229 9H57.0514V10.6285H55.4229V9ZM57.0514 9H58.6799V10.6285H57.0514V9ZM57.0514 10.6285H58.6799V12.2571H57.0514V10.6285ZM57.0514 12.2571H58.6799V13.8856H57.0514V12.2571ZM57.0514 13.8856H58.6799V15.5141H57.0514V13.8856ZM57.0514 15.5141H58.6799V17.1427H57.0514V15.5141ZM57.0514 17.1427H58.6799V18.7712H57.0514V17.1427ZM55.4229 17.1427H57.0514V18.7712H55.4229V17.1427ZM55.4229 15.5141H57.0514V17.1427H55.4229V15.5141ZM55.4229 13.8856H57.0514V15.5141H55.4229V13.8856ZM55.4229 12.2571H57.0514V13.8856H55.4229V12.2571ZM55.4229 10.6285H57.0514V12.2571H55.4229V10.6285ZM55.4229 18.7712H57.0514V20.3997H55.4229V18.7712ZM57.0514 18.7712H58.6799V20.3997H57.0514V18.7712Z" fill="#DFD3B9"/>
<path d="M35.6978 12.257H37.3263V13.8856H35.6978V12.257ZM35.6978 13.8856H37.3263V15.5141H35.6978V13.8856ZM35.6978 15.5141H37.3263V17.1427H35.6978V15.5141ZM35.6978 17.1427H37.3263V18.7712H35.6978V17.1427ZM35.6978 18.7712H37.3263V20.3997H35.6978V18.7712ZM35.6978 20.3997H37.3263V22.0283H35.6978V20.3997ZM37.3263 20.3997H38.9548V22.0283H37.3263V20.3997ZM37.3263 22.0283H38.9548V23.6568H37.3263V22.0283ZM38.9548 22.0283H40.5834V23.6568H38.9548V22.0283ZM38.9548 23.6568H40.5834V25.2853H38.9548V23.6568ZM40.5834 22.0283H42.2119V23.6568H40.5834V22.0283ZM42.2119 20.3997H43.8404V22.0283H42.2119V20.3997ZM43.8404 15.5141H45.469V17.1427H43.8404V15.5141ZM42.2119 12.257H43.8404V13.8856H42.2119V12.257ZM43.8404 12.257H45.469V13.8856H43.8404V12.257ZM43.8404 13.8856H45.469V15.5141H43.8404V13.8856ZM43.8404 17.1427H45.469V18.7712H43.8404V17.1427ZM43.8404 18.7712H45.469V20.3997H43.8404V18.7712ZM42.2119 18.7712H43.8404V20.3997H42.2119V18.7712ZM42.2119 17.1427H43.8404V18.7712H42.2119V17.1427ZM42.2119 15.5141H43.8404V17.1427H42.2119V15.5141ZM42.2119 13.8856H43.8404V15.5141H42.2119V13.8856ZM43.8404 20.3997H45.469V22.0283H43.8404V20.3997ZM47.0975 22.0283H48.726V23.6568H47.0975V22.0283ZM47.0975 23.6568H48.726V25.2853H47.0975V23.6568ZM48.726 22.0283H50.3546V23.6568H48.726V22.0283ZM48.726 20.3997H50.3546V22.0283H48.726V20.3997ZM50.3546 20.3997H51.9831V22.0283H50.3546V20.3997ZM50.3546 18.7712H51.9831V20.3997H50.3546V18.7712ZM50.3546 17.1427H51.9831V18.7712H50.3546V17.1427ZM50.3546 15.5141H51.9831V17.1427H50.3546V15.5141ZM50.3546 13.8856H51.9831V15.5141H50.3546V13.8856ZM50.3546 12.257H51.9831V13.8856H50.3546V12.257ZM37.3263 13.8856H38.9548V15.5141H37.3263V13.8856ZM37.3263 15.5141H38.9548V17.1427H37.3263V15.5141ZM37.3263 17.1427H38.9548V18.7712H37.3263V17.1427ZM37.3263 18.7712H38.9548V20.3997H37.3263V18.7712ZM37.3263 12.257H38.9548V13.8856H37.3263V12.257ZM48.726 12.257H50.3546V13.8856H48.726V12.257ZM48.726 13.8856H50.3546V15.5141H48.726V13.8856ZM48.726 15.5141H50.3546V17.1427H48.726V15.5141ZM48.726 17.1427H50.3546V18.7712H48.726V17.1427ZM48.726 18.7712H50.3546V20.3997H48.726V18.7712ZM40.5834 23.6568H42.2119V25.2853H40.5834V23.6568ZM42.2119 22.0283H43.8404V23.6568H42.2119V22.0283ZM43.8404 22.0283H45.469V23.6568H43.8404V22.0283ZM45.469 22.0283H47.0975V23.6568H45.469V22.0283ZM45.469 23.6568H47.0975V25.2853H45.469V23.6568ZM38.9548 20.3997H40.5834V22.0283H38.9548V20.3997ZM47.0975 20.3997H48.726V22.0283H47.0975V20.3997Z" fill="#DFD3B9"/>
<path d="M25.9226 12.257H27.5511V13.8856H25.9226V12.257ZM24.2941 12.257H25.9226V13.8856H24.2941V12.257ZM24.2941 13.8856H25.9226V15.5141H24.2941V13.8856ZM25.9226 13.8856H27.5511V15.5141H25.9226V13.8856ZM27.5511 12.257H29.1797V13.8856H27.5511V12.257ZM29.1797 12.257H30.8082V13.8856H29.1797V12.257ZM30.8082 12.257H32.4367V13.8856H30.8082V12.257ZM30.8082 13.8856H32.4367V15.5141H30.8082V13.8856ZM29.1797 13.8856H30.8082V15.5141H29.1797V13.8856ZM32.4367 13.8856H34.0653V15.5141H32.4367V13.8856ZM32.4367 15.5141H34.0653V17.1427H32.4367V15.5141ZM32.4367 22.0283H34.0653V23.6568H32.4367V22.0283ZM30.8082 22.0283H32.4367V23.6568H30.8082V22.0283ZM30.8082 15.5141H32.4367V17.1427H30.8082V15.5141ZM29.1797 22.0283H30.8082V23.6568H29.1797V22.0283ZM30.8082 23.6568H32.4367V25.2853H30.8082V23.6568ZM29.1797 23.6568H30.8082V25.2853H29.1797V23.6568ZM27.5511 23.6568H29.1797V25.2853H27.5511V23.6568ZM25.9226 23.6568H27.5511V25.2853H25.9226V23.6568ZM24.2941 23.6568H25.9226V25.2853H24.2941V23.6568ZM24.2941 22.0283H25.9226V23.6568H24.2941V22.0283ZM25.9226 22.0283H27.5511V23.6568H25.9226V22.0283ZM24.2941 20.3997H25.9226V22.0283H24.2941V20.3997ZM22.6655 22.0283H24.2941V23.6568H22.6655V22.0283ZM22.6655 20.3997H24.2941V22.0283H22.6655V20.3997ZM22.6655 18.7712H24.2941V20.3997H22.6655V18.7712ZM22.6655 17.1427H24.2941V18.7712H22.6655V17.1427ZM22.6655 15.5141H24.2941V17.1427H22.6655V15.5141ZM22.6655 13.8856H24.2941V15.5141H22.6655V13.8856ZM24.2941 15.5141H25.9226V17.1427H24.2941V15.5141ZM24.2941 17.1427H25.9226V18.7712H24.2941V17.1427ZM24.2941 18.7712H25.9226V20.3997H24.2941V18.7712ZM27.5511 22.0283H29.1797V23.6568H27.5511V22.0283ZM27.5511 13.8856H29.1797V15.5141H27.5511V13.8856ZM30.8082 17.1427H32.4367V18.7712H30.8082V17.1427ZM32.4367 17.1427H34.0653V18.7712H32.4367V17.1427ZM25.9226 18.7712H27.5511V20.3997H25.9226V18.7712ZM27.5511 18.7712H29.1797V20.3997H27.5511V18.7712ZM29.1797 18.7712H30.8082V20.3997H29.1797V18.7712ZM30.8082 18.7712H32.4367V20.3997H30.8082V18.7712ZM32.4367 18.7712H34.0653V20.3997H32.4367V18.7712ZM29.1797 17.1427H30.8082V18.7712H29.1797V17.1427ZM27.5511 17.1427H29.1797V18.7712H27.5511V17.1427ZM25.9226 17.1427H27.5511V18.7712H25.9226V17.1427Z" fill="#DFD3B9"/>
<path d="M12.8856 17.1427H14.5141V18.7712H12.8856V17.1427ZM12.8856 15.5141H14.5141V17.1427H12.8856V15.5141ZM14.5141 15.5141H16.1427V17.1427H14.5141V15.5141ZM14.5141 17.1427H16.1427V18.7712H14.5141V17.1427ZM14.5141 18.7712H16.1427V20.3997H14.5141V18.7712ZM12.8856 18.7712H14.5141V20.3997H12.8856V18.7712ZM12.8856 12.2571H14.5141V13.8856H12.8856V12.2571ZM12.8856 13.8856H14.5141V15.5141H12.8856V13.8856ZM11.2571 15.5141H12.8856V17.1427H11.2571V15.5141ZM11.2571 13.8856H12.8856V15.5141H11.2571V13.8856ZM11.2571 12.2571H12.8856V13.8856H11.2571V12.2571ZM8 9H9.62854V10.6285H8V9ZM9.62854 9H11.2571V10.6285H9.62854V9ZM11.2571 9H12.8856V10.6285H11.2571V9ZM11.2571 10.6285H12.8856V12.2571H11.2571V10.6285ZM9.62854 10.6285H11.2571V12.2571H9.62854V10.6285ZM8 10.6285H9.62854V12.2571H8V10.6285ZM8 12.2571H9.62854V13.8856H8V12.2571ZM9.62854 12.2571H11.2571V13.8856H9.62854V12.2571ZM9.62854 13.8856H11.2571V15.5141H9.62854V13.8856ZM9.62854 15.5141H11.2571V17.1427H9.62854V15.5141ZM8 15.5141H9.62854V17.1427H8V15.5141ZM8 13.8856H9.62854V15.5141H8V13.8856ZM8 17.1427H9.62854V18.7712H8V17.1427ZM9.62854 17.1427H11.2571V18.7712H9.62854V17.1427ZM9.62854 18.7712H11.2571V20.3997H9.62854V18.7712ZM9.62854 20.3997H11.2571V22.0283H9.62854V20.3997ZM9.62854 22.0283H11.2571V23.6568H9.62854V22.0283ZM9.62854 23.6568H11.2571V25.2854H9.62854V23.6568ZM8 23.6568H9.62854V25.2854H8V23.6568ZM8 22.0283H9.62854V23.6568H8V22.0283ZM8 20.3997H9.62854V22.0283H8V20.3997ZM8 18.7712H9.62854V20.3997H8V18.7712ZM14.5141 20.3997H16.1427V22.0283H14.5141V20.3997ZM14.5141 22.0283H16.1427V23.6568H14.5141V22.0283ZM16.1427 20.3997H17.7712V22.0283H16.1427V20.3997ZM16.1427 18.7712H17.7712V20.3997H16.1427V18.7712ZM16.1427 22.0283H17.7712V23.6568H16.1427V22.0283ZM16.1427 23.6568H17.7712V25.2854H16.1427V23.6568ZM17.7712 23.6568H19.3997V25.2854H17.7712V23.6568ZM19.3997 23.6568H21.0283V25.2854H19.3997V23.6568ZM19.3997 22.0283H21.0283V23.6568H19.3997V22.0283ZM19.3997 20.3997H21.0283V22.0283H19.3997V20.3997ZM17.7712 20.3997H19.3997V22.0283H17.7712V20.3997ZM17.7712 22.0283H19.3997V23.6568H17.7712V22.0283ZM17.7712 18.7712H19.3997V20.3997H17.7712V18.7712ZM19.3997 17.1427H21.0283V18.7712H19.3997V17.1427ZM19.3997 15.5141H21.0283V17.1427H19.3997V15.5141ZM19.3997 18.7712H21.0283V20.3997H19.3997V18.7712ZM17.7712 17.1427H19.3997V18.7712H17.7712V17.1427ZM17.7712 15.5141H19.3997V17.1427H17.7712V15.5141ZM17.7712 13.8856H19.3997V15.5141H17.7712V13.8856ZM19.3997 13.8856H21.0283V15.5141H19.3997V13.8856ZM19.3997 12.2571H21.0283V13.8856H19.3997V12.2571ZM17.7712 9H19.3997V10.6285H17.7712V9ZM19.3997 9H21.0283V10.6285H19.3997V9ZM19.3997 10.6285H21.0283V12.2571H19.3997V10.6285ZM17.7712 10.6285H19.3997V12.2571H17.7712V10.6285ZM17.7712 12.2571H19.3997V13.8856H17.7712V12.2571Z" fill="#DFD3B9"/>
<path d="M71.4907 25.5559H76.2681V30.6672H81.7134V35.7776H66.3794V20.4445H71.4907V25.5559ZM81.7134 5.11154H76.2681V10.2229H71.4907V15.3332H66.3794V0.000213623H81.7134V5.11154Z" fill="#D95764"/>
<rect y="35.7778" width="5.11111" height="5.11111" fill="#7A3038"/>
<rect x="5.11084" y="35.7778" width="5.11111" height="5.11111" fill="#7A3038"/>
<rect opacity="0.5" x="10.2222" y="35.7778" width="5.11111" height="5.11111" fill="#7E4617"/>
<rect opacity="0.5" x="15.3335" y="35.7778" width="5.11111" height="5.11111" fill="#7E4617"/>
<rect opacity="0.5" x="20.4443" y="35.7778" width="5.11111" height="5.11111" fill="#7E4617"/>
<rect opacity="0.5" x="25.5557" y="35.7778" width="5.11111" height="5.11111" fill="#7E4617"/>
<rect opacity="0.5" x="30.6665" y="35.7778" width="5.11111" height="5.11111" fill="#7E4617"/>
<rect opacity="0.5" x="35.7778" y="35.7778" width="5.11111" height="5.11111" fill="#7E4617"/>
<rect opacity="0.5" x="40.8887" y="35.7778" width="5.11111" height="5.11111" fill="#7E4617"/>
<rect opacity="0.5" x="46" y="35.7778" width="5.11111" height="5.11111" fill="#7E4617"/>
<rect opacity="0.5" x="51.1113" y="35.7778" width="5.11111" height="5.11111" fill="#7E4617"/>
<rect opacity="0.5" x="56.2222" y="35.7778" width="5.11111" height="5.11111" fill="#7E4617"/>
<rect opacity="0.5" x="61.3335" y="35.7778" width="5.11111" height="5.11111" fill="#7E4617"/>
<rect opacity="0.5" x="66.4443" y="35.7778" width="5.11111" height="5.11111" fill="#7E4617"/>
<rect opacity="0.5" x="71.5557" y="35.7778" width="5.11111" height="5.11111" fill="#7E4617"/>
<rect opacity="0.5" x="76.6665" y="35.7778" width="5.11111" height="5.11111" fill="#7E4617"/>
<rect opacity="0.5" x="81.7778" y="35.7778" width="5.11111" height="5.11111" fill="#7E4617"/>
<rect x="5.11084" y="40.8889" width="5.11111" height="5.11111" fill="#7A3038"/>
</svg>
