<svg width="87" height="46" viewBox="0 0 87 46" fill="none" xmlns="http://www.w3.org/2000/svg">
<rect width="67.3796" height="35.7778" fill="#C2681F"/>
<path d="M47.206 10.1695H49.1358V12.0994H47.206V10.1695ZM45.2761 10.1695H47.206V12.0994H45.2761V10.1695ZM43.3463 10.1695H45.2761V12.0994H43.3463V10.1695ZM41.4165 10.1695H43.3463V12.0994H41.4165V10.1695ZM39.4866 10.1695H41.4165V12.0994H39.4866V10.1695ZM39.4866 12.0994H41.4165V14.0292H39.4866V12.0994ZM41.4165 12.0994H43.3463V14.0292H41.4165V12.0994ZM43.3463 12.0994H45.2761V14.0292H43.3463V12.0994ZM45.2761 12.0994H47.206V14.0292H45.2761V12.0994ZM47.206 12.0994H49.1358V14.0292H47.206V12.0994ZM37.5568 10.1695H39.4866V12.0994H37.5568V10.1695ZM37.5568 12.0994H39.4866V14.0292H37.5568V12.0994ZM37.5568 14.0292H39.4866V15.959H37.5568V14.0292ZM35.627 14.0292H37.5568V15.959H35.627V14.0292ZM35.627 12.0994H37.5568V14.0292H35.627V12.0994ZM35.627 15.959H37.5568V17.8889H35.627V15.959ZM35.627 17.8889H37.5568V19.8187H35.627V17.8889ZM37.5568 19.8187H39.4866V21.7486H37.5568V19.8187ZM37.5568 17.8889H39.4866V19.8187H37.5568V17.8889ZM37.5568 15.959H39.4866V17.8889H37.5568V15.959ZM35.627 19.8187H37.5568V21.7486H35.627V19.8187ZM37.5568 21.7486H39.4866V23.6784H37.5568V21.7486ZM39.4866 21.7486H41.4165V23.6784H39.4866V21.7486ZM41.4165 21.7486H43.3463V23.6784H41.4165V21.7486ZM45.2761 21.7486H47.206V23.6784H45.2761V21.7486ZM47.206 21.7486H49.1358V23.6784H47.206V21.7486ZM47.206 19.8187H49.1358V21.7486H47.206V19.8187ZM45.2761 19.8187H47.206V21.7486H45.2761V19.8187ZM43.3463 19.8187H45.2761V21.7486H43.3463V19.8187ZM41.4165 19.8187H43.3463V21.7486H41.4165V19.8187ZM39.4866 19.8187H41.4165V21.7486H39.4866V19.8187ZM45.2761 17.8889H47.206V19.8187H45.2761V17.8889ZM45.2761 15.959H47.206V17.8889H45.2761V15.959ZM45.2761 14.0292H47.206V15.959H45.2761V14.0292ZM47.206 14.0292H49.1358V15.959H47.206V14.0292ZM47.206 15.959H49.1358V17.8889H47.206V15.959ZM47.206 17.8889H49.1358V19.8187H47.206V17.8889ZM45.2761 23.6784H47.206V25.6082H45.2761V23.6784ZM45.2761 25.6082H47.206V27.5381H45.2761V25.6082ZM47.206 25.6082H49.1358V27.5381H47.206V25.6082ZM47.206 23.6784H49.1358V25.6082H47.206V23.6784ZM35.627 25.6082H37.5568V27.5381H35.627V25.6082ZM37.5568 25.6082H39.4866V27.5381H37.5568V25.6082ZM37.5568 27.5381H39.4866V29.4679H37.5568V27.5381ZM39.4866 27.5381H41.4165V29.4679H39.4866V27.5381ZM39.4866 25.6082H41.4165V27.5381H39.4866V25.6082ZM41.4165 25.6082H43.3463V27.5381H41.4165V25.6082ZM43.3463 25.6082H45.2761V27.5381H43.3463V25.6082ZM45.2761 27.5381H47.206V29.4679H45.2761V27.5381ZM43.3463 27.5381H45.2761V29.4679H43.3463V27.5381ZM41.4165 27.5381H43.3463V29.4679H41.4165V27.5381Z" fill="#DFD3B9"/>
<path d="M29.8232 6.30986H33.6829V10.1695H29.8232V6.30986ZM29.8232 12.0994H33.6829V25.6082H29.8232V12.0994Z" fill="#DFD3B9"/>
<path d="M57 25.6082L53.1403 25.6082L53.1403 21.7486L57 21.7486L57 25.6082ZM57 19.8187L53.1403 19.8187L53.1403 6.30986L57 6.30986L57 19.8187Z" fill="#DFD3B9"/>
<path d="M14.3789 6.30986H16.3087V8.2397H14.3789V6.30986ZM16.3087 6.30986H18.2386V8.2397H16.3087V6.30986ZM18.2386 6.30986H20.1684V8.2397H18.2386V6.30986ZM20.1684 6.30986H22.0983V8.2397H20.1684V6.30986ZM22.0983 6.30986H24.0281V8.2397H22.0983V6.30986ZM24.0281 6.30986H25.9579V8.2397H24.0281V6.30986ZM24.0281 8.2397H25.9579V10.1695H24.0281V8.2397ZM22.0983 8.2397H24.0281V10.1695H22.0983V8.2397ZM20.1684 8.2397H22.0983V10.1695H20.1684V8.2397ZM18.2386 8.2397H20.1684V10.1695H18.2386V8.2397ZM16.3087 8.2397H18.2386V10.1695H16.3087V8.2397ZM14.3789 8.2397H16.3087V10.1695H14.3789V8.2397ZM25.9579 8.2397H27.8878V10.1695H25.9579V8.2397ZM25.9579 10.1695H27.8878V12.0994H25.9579V10.1695ZM25.9579 12.0994H27.8878V14.0292H25.9579V12.0994ZM24.0281 12.0994H25.9579V14.0292H24.0281V12.0994ZM24.0281 10.1695H25.9579V12.0994H24.0281V10.1695ZM24.0281 14.0292H25.9579V15.9591H24.0281V14.0292ZM22.0983 14.0292H24.0281V15.9591H22.0983V14.0292ZM20.1684 14.0292H22.0983V15.9591H20.1684V14.0292ZM18.2386 14.0292H20.1684V15.9591H18.2386V14.0292ZM16.3087 14.0292H18.2386V15.9591H16.3087V14.0292ZM16.3087 12.0994H18.2386V14.0292H16.3087V12.0994ZM16.3087 10.1695H18.2386V12.0994H16.3087V10.1695ZM14.3789 10.1695H16.3087V12.0994H14.3789V10.1695ZM14.3789 12.0994H16.3087V14.0292H14.3789V12.0994ZM14.3789 14.0292H16.3087V15.9591H14.3789V14.0292ZM14.3789 15.9591H16.3087V17.8889H14.3789V15.9591ZM16.3087 15.9591H18.2386V17.8889H16.3087V15.9591ZM18.2386 15.9591H20.1684V17.8889H18.2386V15.9591ZM20.1684 15.9591H22.0983V17.8889H20.1684V15.9591ZM22.0983 15.9591H24.0281V17.8889H22.0983V15.9591ZM24.0281 15.9591H25.9579V17.8889H24.0281V15.9591ZM25.9579 15.9591H27.8878V17.8889H25.9579V15.9591ZM25.9579 17.8889H27.8878V19.8187H25.9579V17.8889ZM24.0281 17.8889H25.9579V19.8187H24.0281V17.8889ZM24.0281 21.7486H25.9579V23.6784H24.0281V21.7486ZM25.9579 21.7486H27.8878V23.6784H25.9579V21.7486ZM25.9579 19.8187H27.8878V21.7486H25.9579V19.8187ZM24.0281 19.8187H25.9579V21.7486H24.0281V19.8187ZM24.0281 23.6784H25.9579V25.6082H24.0281V23.6784ZM22.0983 23.6784H24.0281V25.6082H22.0983V23.6784ZM20.1684 23.6784H22.0983V25.6082H20.1684V23.6784ZM18.2386 23.6784H20.1684V25.6082H18.2386V23.6784ZM16.3087 23.6784H18.2386V25.6082H16.3087V23.6784ZM14.3789 23.6784H16.3087V25.6082H14.3789V23.6784ZM14.3789 21.7486H16.3087V23.6784H14.3789V21.7486ZM14.3789 19.8187H16.3087V21.7486H14.3789V19.8187ZM14.3789 17.8889H16.3087V19.8187H14.3789V17.8889ZM16.3087 17.8889H18.2386V19.8187H16.3087V17.8889ZM16.3087 19.8187H18.2386V21.7486H16.3087V19.8187ZM16.3087 21.7486H18.2386V23.6784H16.3087V21.7486ZM18.2386 21.7486H20.1684V23.6784H18.2386V21.7486ZM20.1684 21.7486H22.0983V23.6784H20.1684V21.7486ZM22.0983 21.7486H24.0281V23.6784H22.0983V21.7486Z" fill="#DFD3B9"/>
<path d="M71.4907 25.5559H76.2681V30.6672H81.7134V35.7776H66.3794V20.4445H71.4907V25.5559ZM81.7134 5.11154H76.2681V10.2229H71.4907V15.3332H66.3794V0.000213623H81.7134V5.11154Z" fill="#C2681F"/>
<rect y="35.7778" width="5.11111" height="5.11111" fill="#7E4617"/>
<rect x="5.11084" y="35.7778" width="5.11111" height="5.11111" fill="#7E4617"/>
<rect opacity="0.5" x="10.2222" y="35.7778" width="5.11111" height="5.11111" fill="#7E4617"/>
<rect opacity="0.5" x="15.3335" y="35.7778" width="5.11111" height="5.11111" fill="#7E4617"/>
<rect opacity="0.5" x="20.4443" y="35.7778" width="5.11111" height="5.11111" fill="#7E4617"/>
<rect opacity="0.5" x="25.5557" y="35.7778" width="5.11111" height="5.11111" fill="#7E4617"/>
<rect opacity="0.5" x="30.6665" y="35.7778" width="5.11111" height="5.11111" fill="#7E4617"/>
<rect opacity="0.5" x="35.7778" y="35.7778" width="5.11111" height="5.11111" fill="#7E4617"/>
<rect opacity="0.5" x="40.8887" y="35.7778" width="5.11111" height="5.11111" fill="#7E4617"/>
<rect opacity="0.5" x="46" y="35.7778" width="5.11111" height="5.11111" fill="#7E4617"/>
<rect opacity="0.5" x="51.1113" y="35.7778" width="5.11111" height="5.11111" fill="#7E4617"/>
<rect opacity="0.5" x="56.2222" y="35.7778" width="5.11111" height="5.11111" fill="#7E4617"/>
<rect opacity="0.5" x="61.3335" y="35.7778" width="5.11111" height="5.11111" fill="#7E4617"/>
<rect opacity="0.5" x="66.4443" y="35.7778" width="5.11111" height="5.11111" fill="#7E4617"/>
<rect opacity="0.5" x="71.5557" y="35.7778" width="5.11111" height="5.11111" fill="#7E4617"/>
<rect opacity="0.5" x="76.6665" y="35.7778" width="5.11111" height="5.11111" fill="#7E4617"/>
<rect opacity="0.5" x="81.7778" y="35.7778" width="5.11111" height="5.11111" fill="#7E4617"/>
<rect x="5.11084" y="40.8889" width="5.11111" height="5.11111" fill="#7E4617"/>
</svg>
