<svg width="15" height="8" viewBox="0 0 15 8" fill="none" xmlns="http://www.w3.org/2000/svg">
<g clip-path="url(#clip0_158_694)">
<rect x="14.14" y="6.10352e-05" width="1.575" height="1.575" transform="rotate(90 14.14 6.10352e-05)" fill="#D35757"/>
<rect opacity="0.5" x="14.14" y="6.10352e-05" width="1.575" height="1.575" transform="rotate(90 14.14 6.10352e-05)" fill="white"/>
<rect x="12.5649" y="6.10352e-05" width="1.575" height="1.575" transform="rotate(90 12.5649 6.10352e-05)" fill="#D35757"/>
<rect x="12.5649" y="1.57501" width="1.575" height="1.575" transform="rotate(90 12.5649 1.57501)" fill="#D35757"/>
<rect opacity="0.5" x="12.5649" y="1.57501" width="1.575" height="1.575" transform="rotate(90 12.5649 1.57501)" fill="white"/>
<rect x="10.99" y="6.10352e-05" width="1.575" height="1.575" transform="rotate(90 10.99 6.10352e-05)" fill="#D35757"/>
<rect x="10.99" y="1.57501" width="1.575" height="1.575" transform="rotate(90 10.99 1.57501)" fill="#D35757"/>
<rect x="10.99" y="3.15002" width="1.575" height="1.575" transform="rotate(90 10.99 3.15002)" fill="#D35757"/>
<rect opacity="0.5" x="10.99" y="3.15002" width="1.575" height="1.575" transform="rotate(90 10.99 3.15002)" fill="white"/>
<rect x="9.41504" y="6.10352e-05" width="1.575" height="1.575" transform="rotate(90 9.41504 6.10352e-05)" fill="#D35757"/>
<rect x="9.41504" y="1.57501" width="1.575" height="1.575" transform="rotate(90 9.41504 1.57501)" fill="#D35757"/>
<rect x="9.41504" y="3.15002" width="1.575" height="1.575" transform="rotate(90 9.41504 3.15002)" fill="#D35757"/>
<rect x="9.41504" y="4.72504" width="1.575" height="1.575" transform="rotate(90 9.41504 4.72504)" fill="#D35757"/>
<rect opacity="0.5" x="9.41504" y="4.72504" width="1.575" height="1.575" transform="rotate(90 9.41504 4.72504)" fill="white"/>
<rect x="6.30005" y="6.10352e-05" width="1.575" height="1.575" transform="rotate(90 6.30005 6.10352e-05)" fill="#D35757"/>
<rect x="6.30005" y="1.57501" width="1.575" height="1.575" transform="rotate(90 6.30005 1.57501)" fill="#D35757"/>
<rect x="6.30005" y="3.15002" width="1.575" height="1.575" transform="rotate(90 6.30005 3.15002)" fill="#D35757"/>
<rect x="6.30005" y="4.72504" width="1.575" height="1.575" transform="rotate(90 6.30005 4.72504)" fill="#D35757"/>
<rect opacity="0.2" x="6.30005" y="4.72504" width="1.575" height="1.575" transform="rotate(90 6.30005 4.72504)" fill="#4A4A4A"/>
<rect x="7.84009" y="6.10352e-05" width="1.575" height="1.575" transform="rotate(90 7.84009 6.10352e-05)" fill="#D35757"/>
<rect x="7.84009" y="1.57501" width="1.575" height="1.575" transform="rotate(90 7.84009 1.57501)" fill="#D35757"/>
<rect x="7.84009" y="3.15002" width="1.575" height="1.575" transform="rotate(90 7.84009 3.15002)" fill="#D35757"/>
<rect x="7.84009" y="4.72504" width="1.575" height="1.575" transform="rotate(90 7.84009 4.72504)" fill="#D35757"/>
<rect x="7.84009" y="6.26501" width="1.575" height="1.575" transform="rotate(90 7.84009 6.26501)" fill="#D35757"/>
<rect opacity="0.5" x="7.84009" y="6.26501" width="1.575" height="1.575" transform="rotate(90 7.84009 6.26501)" fill="white"/>
<rect x="4.72498" y="6.10352e-05" width="1.575" height="1.575" transform="rotate(90 4.72498 6.10352e-05)" fill="#D35757"/>
<rect x="4.72498" y="1.57501" width="1.575" height="1.575" transform="rotate(90 4.72498 1.57501)" fill="#D35757"/>
<rect x="4.72498" y="3.15002" width="1.575" height="1.575" transform="rotate(90 4.72498 3.15002)" fill="#D35757"/>
<rect opacity="0.2" x="4.72498" y="3.15002" width="1.575" height="1.575" transform="rotate(90 4.72498 3.15002)" fill="#4A4A4A"/>
<rect x="3.15002" y="6.10352e-05" width="1.575" height="1.575" transform="rotate(90 3.15002 6.10352e-05)" fill="#D35757"/>
<rect x="3.15002" y="1.57501" width="1.575" height="1.575" transform="rotate(90 3.15002 1.57501)" fill="#D35757"/>
<rect opacity="0.2" x="3.15002" y="1.57501" width="1.575" height="1.575" transform="rotate(90 3.15002 1.57501)" fill="#4A4A4A"/>
<rect x="1.57495" y="6.10352e-05" width="1.575" height="1.575" transform="rotate(90 1.57495 6.10352e-05)" fill="#D35757"/>
<rect opacity="0.2" x="1.57495" y="6.10352e-05" width="1.575" height="1.575" transform="rotate(90 1.57495 6.10352e-05)" fill="#4A4A4A"/>
</g>
<defs>
<clipPath id="clip0_158_694">
<rect width="14.14" height="7.84" fill="white" transform="translate(14.14 7.84003) rotate(-180)"/>
</clipPath>
</defs>
</svg>
