<svg width="15" height="8" viewBox="0 0 15 8" fill="none" xmlns="http://www.w3.org/2000/svg">
<g clip-path="url(#clip0_158_693)">
<rect y="7.83997" width="1.575" height="1.575" transform="rotate(-90 0 7.83997)" fill="#4EA65E"/>
<rect opacity="0.5" y="7.83997" width="1.575" height="1.575" transform="rotate(-90 0 7.83997)" fill="white"/>
<rect x="1.57507" y="7.83997" width="1.575" height="1.575" transform="rotate(-90 1.57507 7.83997)" fill="#4EA65E"/>
<rect x="1.57507" y="6.26495" width="1.575" height="1.575" transform="rotate(-90 1.57507 6.26495)" fill="#4EA65E"/>
<rect opacity="0.5" x="1.57507" y="6.26495" width="1.575" height="1.575" transform="rotate(-90 1.57507 6.26495)" fill="white"/>
<rect x="3.15002" y="7.83997" width="1.575" height="1.575" transform="rotate(-90 3.15002 7.83997)" fill="#4EA65E"/>
<rect x="3.15002" y="6.26495" width="1.575" height="1.575" transform="rotate(-90 3.15002 6.26495)" fill="#4EA65E"/>
<rect x="3.15002" y="4.69" width="1.575" height="1.575" transform="rotate(-90 3.15002 4.69)" fill="#4EA65E"/>
<rect opacity="0.5" x="3.15002" y="4.69" width="1.575" height="1.575" transform="rotate(-90 3.15002 4.69)" fill="white"/>
<rect x="4.72498" y="7.83997" width="1.575" height="1.575" transform="rotate(-90 4.72498 7.83997)" fill="#4EA65E"/>
<rect x="4.72498" y="6.26495" width="1.575" height="1.575" transform="rotate(-90 4.72498 6.26495)" fill="#4EA65E"/>
<rect x="4.72498" y="4.69" width="1.575" height="1.575" transform="rotate(-90 4.72498 4.69)" fill="#4EA65E"/>
<rect x="4.72498" y="3.11499" width="1.575" height="1.575" transform="rotate(-90 4.72498 3.11499)" fill="#4EA65E"/>
<rect opacity="0.5" x="4.72498" y="3.11499" width="1.575" height="1.575" transform="rotate(-90 4.72498 3.11499)" fill="white"/>
<rect x="7.83997" y="7.83997" width="1.575" height="1.575" transform="rotate(-90 7.83997 7.83997)" fill="#4EA65E"/>
<rect x="7.83997" y="6.26495" width="1.575" height="1.575" transform="rotate(-90 7.83997 6.26495)" fill="#4EA65E"/>
<rect x="7.83997" y="4.69" width="1.575" height="1.575" transform="rotate(-90 7.83997 4.69)" fill="#4EA65E"/>
<rect x="7.83997" y="3.11499" width="1.575" height="1.575" transform="rotate(-90 7.83997 3.11499)" fill="#4EA65E"/>
<rect opacity="0.2" x="7.83997" y="3.11499" width="1.575" height="1.575" transform="rotate(-90 7.83997 3.11499)" fill="#4A4A4A"/>
<rect x="6.29993" y="7.83997" width="1.575" height="1.575" transform="rotate(-90 6.29993 7.83997)" fill="#4EA65E"/>
<rect x="6.29993" y="6.26495" width="1.575" height="1.575" transform="rotate(-90 6.29993 6.26495)" fill="#4EA65E"/>
<rect x="6.29993" y="4.69" width="1.575" height="1.575" transform="rotate(-90 6.29993 4.69)" fill="#4EA65E"/>
<rect x="6.29993" y="3.11499" width="1.575" height="1.575" transform="rotate(-90 6.29993 3.11499)" fill="#4EA65E"/>
<rect x="6.29993" y="1.57495" width="1.575" height="1.575" transform="rotate(-90 6.29993 1.57495)" fill="#4EA65E"/>
<rect opacity="0.5" x="6.29993" y="1.57495" width="1.575" height="1.575" transform="rotate(-90 6.29993 1.57495)" fill="white"/>
<rect x="9.41504" y="7.83997" width="1.575" height="1.575" transform="rotate(-90 9.41504 7.83997)" fill="#4EA65E"/>
<rect x="9.41504" y="6.26495" width="1.575" height="1.575" transform="rotate(-90 9.41504 6.26495)" fill="#4EA65E"/>
<rect x="9.41504" y="4.69" width="1.575" height="1.575" transform="rotate(-90 9.41504 4.69)" fill="#4EA65E"/>
<rect opacity="0.2" x="9.41504" y="4.69" width="1.575" height="1.575" transform="rotate(-90 9.41504 4.69)" fill="#4A4A4A"/>
<rect x="10.99" y="7.83997" width="1.575" height="1.575" transform="rotate(-90 10.99 7.83997)" fill="#4EA65E"/>
<rect x="10.99" y="6.26495" width="1.575" height="1.575" transform="rotate(-90 10.99 6.26495)" fill="#4EA65E"/>
<rect opacity="0.2" x="10.99" y="6.26495" width="1.575" height="1.575" transform="rotate(-90 10.99 6.26495)" fill="#4A4A4A"/>
<rect x="12.5651" y="7.83997" width="1.575" height="1.575" transform="rotate(-90 12.5651 7.83997)" fill="#4EA65E"/>
<rect opacity="0.2" x="12.5651" y="7.83997" width="1.575" height="1.575" transform="rotate(-90 12.5651 7.83997)" fill="#4A4A4A"/>
</g>
<defs>
<clipPath id="clip0_158_693">
<rect width="14.14" height="7.84" fill="white"/>
</clipPath>
</defs>
</svg>
